<?xml version="1.0" encoding="UTF-8" standalone="no"?>
<!-- Created with Inkscape (http://www.inkscape.org/) -->

<svg
   width="512"
   height="512"
   viewBox="0 0 135.46666 135.46667"
   version="1.1"
   id="svg5"
   inkscape:version="1.2 (dc2aedaf03, 2022-05-15)"
   sodipodi:docname="Icon.svg"
   xmlns:inkscape="http://www.inkscape.org/namespaces/inkscape"
   xmlns:sodipodi="http://sodipodi.sourceforge.net/DTD/sodipodi-0.dtd"
   xmlns="http://www.w3.org/2000/svg"
   xmlns:svg="http://www.w3.org/2000/svg">
  <sodipodi:namedview
     id="namedview7"
     pagecolor="#ffffff"
     bordercolor="#666666"
     borderopacity="1.0"
     inkscape:showpageshadow="2"
     inkscape:pageopacity="0.0"
     inkscape:pagecheckerboard="0"
     inkscape:deskcolor="#d1d1d1"
     inkscape:document-units="mm"
     showgrid="false"
     inkscape:zoom="1.0444209"
     inkscape:cx="490.22381"
     inkscape:cy="341.81621"
     inkscape:window-width="1920"
     inkscape:window-height="1017"
     inkscape:window-x="-8"
     inkscape:window-y="32"
     inkscape:window-maximized="1"
     inkscape:current-layer="layer1" />
  <defs
     id="defs2" />
  <g
     inkscape:label="Layer 1"
     inkscape:groupmode="layer"
     id="layer1">
    <g
       id="g5096"
       transform="translate(-4.279383,2.1411758)">
      <g
         id="g3329">
        <g
           id="g4949"
           inkscape:label="File"
           style="opacity:0.7"
           transform="matrix(1.1921433,0,0,1.1921433,-2.0474212,-5.607577)">
          <path
             style="opacity:1;fill:#ff0000;fill-opacity:1;stroke:none;stroke-width:1.38049;stroke-linecap:round;stroke-opacity:1;paint-order:stroke markers fill"
             d="m 14.090102,31.050873 c -0.06287,0 -0.124998,0.0024 -0.185518,0.0072 -0.423598,0.03372 -0.785177,0.180257 -1.02061,0.358635 -0.23544,0.178378 -0.335267,0.353026 -0.356567,0.523999 -0.003,0.02391 -0.0041,0.04754 -0.0041,0.07131 v 0.0016 50.85581 0.0016 c 10e-5,0.02379 0.0011,0.04738 0.0041,0.07131 0.0213,0.170984 0.121133,0.34562 0.356567,0.523999 0.201798,0.152898 0.496601,0.282437 0.84336,0.337447 0.115585,0.01838 0.237034,0.02842 0.362768,0.02842 h 34.419605 c 0.12573,0 0.24756,-0.01009 0.36328,-0.02842 0.34717,-0.05501 0.64208,-0.184543 0.84388,-0.337447 0.23544,-0.178379 0.33527,-0.353015 0.35657,-0.523999 0.003,-0.02444 0.005,-0.04856 0.005,-0.07286 v -41.05492 h -7.36803 c -0.88251,0 -1.69821,-0.26098 -2.33319,-0.742074 -0.63497,-0.481094 -1.10071,-1.22965 -1.10071,-2.085144 v -7.936466 z"
             id="rect3318" />
          <path
             id="path2572"
             style="color:#000000;opacity:1;fill:#4d4d4d;fill-opacity:1;stroke:none;stroke-width:0.745547;stroke-linecap:round;stroke-opacity:1;paint-order:stroke markers fill"
             d="m 14.090785,29.184351 c -0.882513,0 -1.699385,0.261324 -2.334363,0.742419 -0.317489,0.240548 -0.592407,0.54808 -0.787881,0.902307 -2.21e-4,4.01e-4 -5.5e-4,7.45e-4 -7.46e-4,0.0012 -5.1e-5,9.5e-5 5.3e-5,2.89e-4 0,3.85e-4 C 10.771931,31.18485 10.6557,31.585661 10.6557,32.01341 v 50.857429 c 0,0.855493 0.465744,1.603984 1.100722,2.085086 0.476235,0.360821 1.054561,0.598152 1.686334,0.69426 0.210591,0.03221 0.427401,0.04854 0.648029,0.04854 h 34.420186 c 0.220627,0 0.43705,-0.01641 0.647642,-0.04854 0.631774,-0.09611 1.210485,-0.333445 1.68672,-0.69426 0.555993,-0.421257 0.982071,-1.047472 1.079531,-1.771091 0.0069,-0.05115 0.01219,-0.102813 0.01588,-0.154877 3.5e-5,-5.07e-4 -3.4e-5,-7.46e-4 0,-0.0015 0.0035,-0.05256 0.0053,-0.105651 0.0053,-0.159111 V 40.121454 l -0.173349,-0.173371 -5.652709,-5.651168 -4.975785,-4.977326 -0.135228,-0.135228 h -0.155799 z m 0,1.866643 h 25.186761 v 7.936214 c 0,0.855495 0.465744,1.603997 1.100721,2.085092 0.63498,0.481094 1.45031,0.742419 2.332821,0.742419 h 7.368325 v 41.05457 c 0,0.0243 -0.0016,0.04876 -0.0047,0.0732 -0.0213,0.170984 -0.121322,0.345591 -0.356762,0.52397 -0.201798,0.152904 -0.496962,0.2821 -0.844131,0.337114 -0.115725,0.01833 -0.237199,0.02849 -0.362926,0.02849 H 14.090785 c -0.125734,0 -0.247341,-0.01011 -0.362926,-0.02849 -0.346759,-0.05501 -0.641177,-0.184216 -0.842975,-0.337114 -0.235434,-0.178379 -0.335464,-0.352986 -0.356762,-0.52397 -0.003,-0.02393 -0.0042,-0.04786 -0.0043,-0.07165 v -0.0015 -50.855887 -0.0012 c 0,-0.02377 0.0013,-0.04775 0.0043,-0.07166 0.0213,-0.170973 0.121322,-0.345592 0.356762,-0.52397 0.235433,-0.178378 0.596986,-0.324578 1.020584,-0.358302 0.06052,-0.0048 0.122445,-0.0074 0.185317,-0.0074 z m 27.053403,0.90847 3.656615,3.656615 4.331996,4.331997 h -6.421711 c -0.502903,0 -0.93645,-0.160218 -1.205515,-0.364082 -0.269065,-0.203858 -0.361385,-0.402569 -0.361385,-0.596786 z"
             sodipodi:nodetypes="cssccssscsscssscscccccccccssscscsssscscsccscsccccccsssc" />
          <path
             style="opacity:1;fill:#800000;fill-opacity:1;stroke:#000062;stroke-width:0.1;stroke-linecap:round;stroke-dasharray:none;stroke-opacity:1;paint-order:stroke markers fill"
             d="m 41.144188,31.959338 v 7.027995 c 0,0.194217 0.0927,0.393005 0.36174,0.596863 0.26906,0.203864 0.70271,0.363802 1.20561,0.363802 h 6.42131 l -4.33203,-4.332035 z"
             id="path3324" />
        </g>
        <g
           id="g4973"
           inkscape:label="File"
           style="opacity:1"
           transform="matrix(1.1921433,0,0,1.1921433,4.5383312,-0.16519731)">
          <path
             style="opacity:1;fill:#ff0000;fill-opacity:1;stroke:none;stroke-width:1.38049;stroke-linecap:round;stroke-opacity:1;paint-order:stroke markers fill"
             d="m 14.090102,31.050873 c -0.06287,0 -0.124998,0.0024 -0.185518,0.0072 -0.423598,0.03372 -0.785177,0.180257 -1.02061,0.358635 -0.23544,0.178378 -0.335267,0.353026 -0.356567,0.523999 -0.003,0.02391 -0.0041,0.04754 -0.0041,0.07131 v 0.0016 50.85581 0.0016 c 10e-5,0.02379 0.0011,0.04738 0.0041,0.07131 0.0213,0.170984 0.121133,0.34562 0.356567,0.523999 0.201798,0.152898 0.496601,0.282437 0.84336,0.337447 0.115585,0.01838 0.237034,0.02842 0.362768,0.02842 h 34.419605 c 0.12573,0 0.24756,-0.01009 0.36328,-0.02842 0.34717,-0.05501 0.64208,-0.184543 0.84388,-0.337447 0.23544,-0.178379 0.33527,-0.353015 0.35657,-0.523999 0.003,-0.02444 0.005,-0.04856 0.005,-0.07286 v -41.05492 h -7.36803 c -0.88251,0 -1.69821,-0.26098 -2.33319,-0.742074 -0.63497,-0.481094 -1.10071,-1.22965 -1.10071,-2.085144 v -7.936466 z"
             id="path4967" />
          <path
             id="path4969"
             style="color:#000000;opacity:1;fill:#4d4d4d;fill-opacity:1;stroke:none;stroke-width:0.745547;stroke-linecap:round;stroke-opacity:1;paint-order:stroke markers fill"
             d="m 14.090785,29.184351 c -0.882513,0 -1.699385,0.261324 -2.334363,0.742419 -0.317489,0.240548 -0.592407,0.54808 -0.787881,0.902307 -2.21e-4,4.01e-4 -5.5e-4,7.45e-4 -7.46e-4,0.0012 -5.1e-5,9.5e-5 5.3e-5,2.89e-4 0,3.85e-4 C 10.771931,31.18485 10.6557,31.585661 10.6557,32.01341 v 50.857429 c 0,0.855493 0.465744,1.603984 1.100722,2.085086 0.476235,0.360821 1.054561,0.598152 1.686334,0.69426 0.210591,0.03221 0.427401,0.04854 0.648029,0.04854 h 34.420186 c 0.220627,0 0.43705,-0.01641 0.647642,-0.04854 0.631774,-0.09611 1.210485,-0.333445 1.68672,-0.69426 0.555993,-0.421257 0.982071,-1.047472 1.079531,-1.771091 0.0069,-0.05115 0.01219,-0.102813 0.01588,-0.154877 3.5e-5,-5.07e-4 -3.4e-5,-7.46e-4 0,-0.0015 0.0035,-0.05256 0.0053,-0.105651 0.0053,-0.159111 V 40.121454 l -0.173349,-0.173371 -5.652709,-5.651168 -4.975785,-4.977326 -0.135228,-0.135228 h -0.155799 z m 0,1.866643 h 25.186761 v 7.936214 c 0,0.855495 0.465744,1.603997 1.100721,2.085092 0.63498,0.481094 1.45031,0.742419 2.332821,0.742419 h 7.368325 v 41.05457 c 0,0.0243 -0.0016,0.04876 -0.0047,0.0732 -0.0213,0.170984 -0.121322,0.345591 -0.356762,0.52397 -0.201798,0.152904 -0.496962,0.2821 -0.844131,0.337114 -0.115725,0.01833 -0.237199,0.02849 -0.362926,0.02849 H 14.090785 c -0.125734,0 -0.247341,-0.01011 -0.362926,-0.02849 -0.346759,-0.05501 -0.641177,-0.184216 -0.842975,-0.337114 -0.235434,-0.178379 -0.335464,-0.352986 -0.356762,-0.52397 -0.003,-0.02393 -0.0042,-0.04786 -0.0043,-0.07165 v -0.0015 -50.855887 -0.0012 c 0,-0.02377 0.0013,-0.04775 0.0043,-0.07166 0.0213,-0.170973 0.121322,-0.345592 0.356762,-0.52397 0.235433,-0.178378 0.596986,-0.324578 1.020584,-0.358302 0.06052,-0.0048 0.122445,-0.0074 0.185317,-0.0074 z m 27.053403,0.90847 3.656615,3.656615 4.331996,4.331997 h -6.421711 c -0.502903,0 -0.93645,-0.160218 -1.205515,-0.364082 -0.269065,-0.203858 -0.361385,-0.402569 -0.361385,-0.596786 z"
             sodipodi:nodetypes="cssccssscsscssscscccccccccssscscsssscscsccscsccccccsssc" />
          <path
             style="opacity:1;fill:#800000;fill-opacity:1;stroke:#000062;stroke-width:0.1;stroke-linecap:round;stroke-dasharray:none;stroke-opacity:1;paint-order:stroke markers fill"
             d="m 41.144188,31.959338 v 7.027995 c 0,0.194217 0.0927,0.393005 0.36174,0.596863 0.26906,0.203864 0.70271,0.363802 1.20561,0.363802 h 6.42131 l -4.33203,-4.332035 z"
             id="path4971" />
        </g>
        <text
           xml:space="preserve"
           style="font-size:15.915px;line-height:1.25;font-family:'LOV.Normalfraktur';-inkscape-font-specification:'LOV.Normalfraktur';opacity:1;fill:#ffffff;stroke-width:0.750788"
           x="25.062462"
           y="74.097786"
           id="text4111"><tspan
             sodipodi:role="line"
             id="tspan4109"
             style="font-style:normal;font-variant:normal;font-weight:bold;font-stretch:normal;font-family:Inter;-inkscape-font-specification:'Inter Bold';fill:#ffffff;stroke-width:0.750788"
             x="25.062462"
             y="74.097786">SVG</tspan></text>
      </g>
      <g
         id="g5045"
         transform="translate(63.25816)">
        <text
           xml:space="preserve"
           style="font-size:15.915px;line-height:1.25;font-family:'LOV.Normalfraktur';-inkscape-font-specification:'LOV.Normalfraktur';opacity:1;fill:#ffffff;stroke-width:0.750788"
           x="25.062462"
           y="74.097786"
           id="text5043"><tspan
             sodipodi:role="line"
             id="tspan5041"
             style="font-style:normal;font-variant:normal;font-weight:bold;font-stretch:normal;font-family:Inter;-inkscape-font-specification:'Inter Bold';fill:#ffffff;stroke-width:0.750788"
             x="25.062462"
             y="74.097786">PNG</tspan></text>
      </g>
      <g
         id="g5067"
         transform="translate(66.904273)">
        <g
           id="g5053"
           inkscape:label="File"
           style="opacity:0.7"
           transform="matrix(1.1921433,0,0,1.1921433,-2.0474212,-5.607577)">
          <path
             style="opacity:1;fill:#0000ff;fill-opacity:1;stroke:none;stroke-width:1.38049;stroke-linecap:round;stroke-opacity:1;paint-order:stroke markers fill"
             d="m 14.090102,31.050873 c -0.06287,0 -0.124998,0.0024 -0.185518,0.0072 -0.423598,0.03372 -0.785177,0.180257 -1.02061,0.358635 -0.23544,0.178378 -0.335267,0.353026 -0.356567,0.523999 -0.003,0.02391 -0.0041,0.04754 -0.0041,0.07131 v 0.0016 50.85581 0.0016 c 10e-5,0.02379 0.0011,0.04738 0.0041,0.07131 0.0213,0.170984 0.121133,0.34562 0.356567,0.523999 0.201798,0.152898 0.496601,0.282437 0.84336,0.337447 0.115585,0.01838 0.237034,0.02842 0.362768,0.02842 h 34.419605 c 0.12573,0 0.24756,-0.01009 0.36328,-0.02842 0.34717,-0.05501 0.64208,-0.184543 0.84388,-0.337447 0.23544,-0.178379 0.33527,-0.353015 0.35657,-0.523999 0.003,-0.02444 0.005,-0.04856 0.005,-0.07286 v -41.05492 h -7.36803 c -0.88251,0 -1.69821,-0.26098 -2.33319,-0.742074 -0.63497,-0.481094 -1.10071,-1.22965 -1.10071,-2.085144 v -7.936466 z"
             id="path5047" />
          <path
             id="path5049"
             style="color:#000000;opacity:1;fill:#4d4d4d;fill-opacity:1;stroke:none;stroke-width:0.745547;stroke-linecap:round;stroke-opacity:1;paint-order:stroke markers fill"
             d="m 14.090785,29.184351 c -0.882513,0 -1.699385,0.261324 -2.334363,0.742419 -0.317489,0.240548 -0.592407,0.54808 -0.787881,0.902307 -2.21e-4,4.01e-4 -5.5e-4,7.45e-4 -7.46e-4,0.0012 -5.1e-5,9.5e-5 5.3e-5,2.89e-4 0,3.85e-4 C 10.771931,31.18485 10.6557,31.585661 10.6557,32.01341 v 50.857429 c 0,0.855493 0.465744,1.603984 1.100722,2.085086 0.476235,0.360821 1.054561,0.598152 1.686334,0.69426 0.210591,0.03221 0.427401,0.04854 0.648029,0.04854 h 34.420186 c 0.220627,0 0.43705,-0.01641 0.647642,-0.04854 0.631774,-0.09611 1.210485,-0.333445 1.68672,-0.69426 0.555993,-0.421257 0.982071,-1.047472 1.079531,-1.771091 0.0069,-0.05115 0.01219,-0.102813 0.01588,-0.154877 3.5e-5,-5.07e-4 -3.4e-5,-7.46e-4 0,-0.0015 0.0035,-0.05256 0.0053,-0.105651 0.0053,-0.159111 V 40.121454 l -0.173349,-0.173371 -5.652709,-5.651168 -4.975785,-4.977326 -0.135228,-0.135228 h -0.155799 z m 0,1.866643 h 25.186761 v 7.936214 c 0,0.855495 0.465744,1.603997 1.100721,2.085092 0.63498,0.481094 1.45031,0.742419 2.332821,0.742419 h 7.368325 v 41.05457 c 0,0.0243 -0.0016,0.04876 -0.0047,0.0732 -0.0213,0.170984 -0.121322,0.345591 -0.356762,0.52397 -0.201798,0.152904 -0.496962,0.2821 -0.844131,0.337114 -0.115725,0.01833 -0.237199,0.02849 -0.362926,0.02849 H 14.090785 c -0.125734,0 -0.247341,-0.01011 -0.362926,-0.02849 -0.346759,-0.05501 -0.641177,-0.184216 -0.842975,-0.337114 -0.235434,-0.178379 -0.335464,-0.352986 -0.356762,-0.52397 -0.003,-0.02393 -0.0042,-0.04786 -0.0043,-0.07165 v -0.0015 -50.855887 -0.0012 c 0,-0.02377 0.0013,-0.04775 0.0043,-0.07166 0.0213,-0.170973 0.121322,-0.345592 0.356762,-0.52397 0.235433,-0.178378 0.596986,-0.324578 1.020584,-0.358302 0.06052,-0.0048 0.122445,-0.0074 0.185317,-0.0074 z m 27.053403,0.90847 3.656615,3.656615 4.331996,4.331997 h -6.421711 c -0.502903,0 -0.93645,-0.160218 -1.205515,-0.364082 -0.269065,-0.203858 -0.361385,-0.402569 -0.361385,-0.596786 z"
             sodipodi:nodetypes="cssccssscsscssscscccccccccssscscsssscscsccscsccccccsssc" />
          <path
             style="opacity:1;fill:#000080;fill-opacity:1;stroke:#000062;stroke-width:0.1;stroke-linecap:round;stroke-dasharray:none;stroke-opacity:1;paint-order:stroke markers fill"
             d="m 41.144188,31.959338 v 7.027995 c 0,0.194217 0.0927,0.393005 0.36174,0.596863 0.26906,0.203864 0.70271,0.363802 1.20561,0.363802 h 6.42131 l -4.33203,-4.332035 z"
             id="path5051" />
        </g>
        <g
           id="g5061"
           inkscape:label="File"
           style="opacity:1"
           transform="matrix(1.1921433,0,0,1.1921433,4.5383312,-0.16519731)">
          <path
             style="opacity:1;fill:#0000ff;fill-opacity:1;stroke:none;stroke-width:1.38049;stroke-linecap:round;stroke-opacity:1;paint-order:stroke markers fill"
             d="m 14.090102,31.050873 c -0.06287,0 -0.124998,0.0024 -0.185518,0.0072 -0.423598,0.03372 -0.785177,0.180257 -1.02061,0.358635 -0.23544,0.178378 -0.335267,0.353026 -0.356567,0.523999 -0.003,0.02391 -0.0041,0.04754 -0.0041,0.07131 v 0.0016 50.85581 0.0016 c 10e-5,0.02379 0.0011,0.04738 0.0041,0.07131 0.0213,0.170984 0.121133,0.34562 0.356567,0.523999 0.201798,0.152898 0.496601,0.282437 0.84336,0.337447 0.115585,0.01838 0.237034,0.02842 0.362768,0.02842 h 34.419605 c 0.12573,0 0.24756,-0.01009 0.36328,-0.02842 0.34717,-0.05501 0.64208,-0.184543 0.84388,-0.337447 0.23544,-0.178379 0.33527,-0.353015 0.35657,-0.523999 0.003,-0.02444 0.005,-0.04856 0.005,-0.07286 v -41.05492 h -7.36803 c -0.88251,0 -1.69821,-0.26098 -2.33319,-0.742074 -0.63497,-0.481094 -1.10071,-1.22965 -1.10071,-2.085144 v -7.936466 z"
             id="path5055" />
          <path
             id="path5057"
             style="color:#000000;opacity:1;fill:#4d4d4d;fill-opacity:1;stroke:none;stroke-width:0.745547;stroke-linecap:round;stroke-opacity:1;paint-order:stroke markers fill"
             d="m 14.090785,29.184351 c -0.882513,0 -1.699385,0.261324 -2.334363,0.742419 -0.317489,0.240548 -0.592407,0.54808 -0.787881,0.902307 -2.21e-4,4.01e-4 -5.5e-4,7.45e-4 -7.46e-4,0.0012 -5.1e-5,9.5e-5 5.3e-5,2.89e-4 0,3.85e-4 C 10.771931,31.18485 10.6557,31.585661 10.6557,32.01341 v 50.857429 c 0,0.855493 0.465744,1.603984 1.100722,2.085086 0.476235,0.360821 1.054561,0.598152 1.686334,0.69426 0.210591,0.03221 0.427401,0.04854 0.648029,0.04854 h 34.420186 c 0.220627,0 0.43705,-0.01641 0.647642,-0.04854 0.631774,-0.09611 1.210485,-0.333445 1.68672,-0.69426 0.555993,-0.421257 0.982071,-1.047472 1.079531,-1.771091 0.0069,-0.05115 0.01219,-0.102813 0.01588,-0.154877 3.5e-5,-5.07e-4 -3.4e-5,-7.46e-4 0,-0.0015 0.0035,-0.05256 0.0053,-0.105651 0.0053,-0.159111 V 40.121454 l -0.173349,-0.173371 -5.652709,-5.651168 -4.975785,-4.977326 -0.135228,-0.135228 h -0.155799 z m 0,1.866643 h 25.186761 v 7.936214 c 0,0.855495 0.465744,1.603997 1.100721,2.085092 0.63498,0.481094 1.45031,0.742419 2.332821,0.742419 h 7.368325 v 41.05457 c 0,0.0243 -0.0016,0.04876 -0.0047,0.0732 -0.0213,0.170984 -0.121322,0.345591 -0.356762,0.52397 -0.201798,0.152904 -0.496962,0.2821 -0.844131,0.337114 -0.115725,0.01833 -0.237199,0.02849 -0.362926,0.02849 H 14.090785 c -0.125734,0 -0.247341,-0.01011 -0.362926,-0.02849 -0.346759,-0.05501 -0.641177,-0.184216 -0.842975,-0.337114 -0.235434,-0.178379 -0.335464,-0.352986 -0.356762,-0.52397 -0.003,-0.02393 -0.0042,-0.04786 -0.0043,-0.07165 v -0.0015 -50.855887 -0.0012 c 0,-0.02377 0.0013,-0.04775 0.0043,-0.07166 0.0213,-0.170973 0.121322,-0.345592 0.356762,-0.52397 0.235433,-0.178378 0.596986,-0.324578 1.020584,-0.358302 0.06052,-0.0048 0.122445,-0.0074 0.185317,-0.0074 z m 27.053403,0.90847 3.656615,3.656615 4.331996,4.331997 h -6.421711 c -0.502903,0 -0.93645,-0.160218 -1.205515,-0.364082 -0.269065,-0.203858 -0.361385,-0.402569 -0.361385,-0.596786 z"
             sodipodi:nodetypes="cssccssscsscssscscccccccccssscscsssscscsccscsccccccsssc" />
          <path
             style="opacity:1;fill:#000080;fill-opacity:1;stroke:#000062;stroke-width:0.1;stroke-linecap:round;stroke-dasharray:none;stroke-opacity:1;paint-order:stroke markers fill"
             d="m 41.144188,31.959338 v 7.027995 c 0,0.194217 0.0927,0.393005 0.36174,0.596863 0.26906,0.203864 0.70271,0.363802 1.20561,0.363802 h 6.42131 l -4.33203,-4.332035 z"
             id="path5059" />
        </g>
        <text
           xml:space="preserve"
           style="font-size:15.915px;line-height:1.25;font-family:'LOV.Normalfraktur';-inkscape-font-specification:'LOV.Normalfraktur';opacity:1;fill:#ffffff;stroke-width:0.750788"
           x="25.062462"
           y="74.097786"
           id="text5065"><tspan
             sodipodi:role="line"
             id="tspan5063"
             style="font-style:normal;font-variant:normal;font-weight:bold;font-stretch:normal;font-family:Inter;-inkscape-font-specification:'Inter Bold';fill:#ffffff;stroke-width:0.750788"
             x="25.062462"
             y="74.097786">PNG</tspan></text>
      </g>
      <g
         aria-label="➥"
         transform="matrix(1.6700943,0,0,0.85097326,5.6652188,3.5747657)"
         id="text4895"
         style="font-size:30.0319px;line-height:1.25;font-family:'LOV.Normalfraktur';-inkscape-font-specification:'LOV.Normalfraktur';opacity:1;fill:#ffffff;stroke:#000000;stroke-width:1.41675;stroke-opacity:1">
        <path
           d="m 33.367867,107.70721 q -3.284739,0 -4.575172,-1.75968 -1.055809,-1.40775 -1.055809,-4.57517 v -6.921419 h 1.173121 q 0,2.698178 0.938497,3.519363 0.703872,0.586561 2.932802,0.586561 H 43.104772 V 96.09331 l 10.440778,7.03873 -10.440778,7.03872 v -2.46355 z"
           id="path4952"
           style="fill:#ffffff;stroke:#000000;stroke-opacity:1" />
      </g>
    </g>
  </g>
</svg>
